# AST/ASF file generated using VICON BodyLanguage
# -----------------------------------------------
:version 1.10
:name VICON
:units
  mass 1.0
  length 0.45
  angle deg
:documentation
   .ast/.asf automatically generated from VICON data using
   VICON BodyBuilder and BodyLanguage model FoxedUp or BRILLIANT.MOD
:root
   order TX TY TZ RX RY RZ
   axis XYZ
   position 0 0 0  
   orientation 0 0 0 
:bonedata
  begin
     id 1 
     name lhipjoint
     direction 0.624716 -0.669793 0.401383 
     length 2.38238 
     axis 0 0 0  XYZ
  end
  begin
     id 2 
     name lfemur
     direction 0.34202 -0.939693 0  
     length 6.4574  
     axis 0 0 20  XYZ
    dof rx ry rz
    limits (-160.0 20.0)
           (-70.0 70.0)
           (-60.0 70.0)
  end
  begin
     id 3 
     name ltibia
     direction 0.34202 -0.939693 0   
     length 7.68739   
     axis 0 0 20   XYZ
    dof rx
    limits (-10.0 170.0)
  end
  begin
     id 4 
     name lfoot
     direction 0.0681309 -0.187188 0.979959   
     length 2.46615   
     axis -90 7.62852e-016 20   XYZ
    dof rx rz
    limits (-45.0 90.0)
           (-70.0 20.0)
  end
  begin
     id 5 
     name ltoes
     direction 1.53566e-011 -4.21819e-011 1   
     length 1.2376   
     axis -90 7.62852e-016 20   XYZ
    dof rx
    limits (-90.0 20.0)
  end
  begin
     id 6 
     name rhipjoint
     direction -0.644473 -0.655875 0.393043   
     length 2.43293  
     axis 0 0 0  XYZ 
  end
  begin
     id 7 
     name rfemur
     direction -0.34202 -0.939693 0   
     length 6.7025   
     axis 0 0 -20   XYZ
    dof rx ry rz
    limits (-160.0 20.0)
           (-70.0 70.0)
           (-70.0 60.0)
  end
  begin
     id 8 
     name rtibia
     direction -0.34202 -0.939693 0   
     length 7.80547   
     axis 0 0 -20   XYZ
    dof rx
    limits (-10.0 170.0)
 end
 begin
     id 9 
     name rfoot
     direction -0.0756734 -0.207911 0.975216   
     length 2.40315  
     axis -90 -7.62852e-016 -20   XYZ
    dof rx rz
    limits (-45.0 90.0)
           (-20.0 70.0)
  end
  begin
     id 10 
     name rtoes
     direction -1.5353e-011 -4.21879e-011 1   
     length 1.20477   
     axis -90 -7.62852e-016 -20   XYZ
    dof rx
    limits (-90.0 20.0)
  end
  begin
     id 11 
     name lowerback
     direction 0.0160353 0.987463 -0.157037   
     length 2.18572   
     axis 0 0 0   XYZ
    dof rx ry rz
    limits (-20.0 45.0)
           (-30.0 30.0)
           (-30.0 30.0)
  end
  begin
     id 12 
     name upperback
     direction -0.00499661 0.999756 0.0215076   
     length 2.18016   
     axis 0 0 0   XYZ
    dof rx ry rz
    limits (-20.0 45.0)
           (-30.0 30.0)
           (-30.0 30.0)
  end
  begin
     id 13 
     name thorax
     direction -0.00921346 0.995333 0.0960619   
     length 2.24923   
     axis 0 0 0   XYZ
    dof rx ry rz
    limits (-20.0 45.0)
           (-30.0 30.0)
           (-30.0 30.0)
  end
  begin
     id 14 
     name lowerneck
     direction 0.0274184 0.991181 0.12965   
     length 1.70911   
     axis 0 0 0   XYZ
    dof rx ry rz
    limits (-20.0 45.0)
           (-30.0 30.0)
           (-30.0 30.0)
  end
  begin
     id 15 
     name upperneck
     direction 0.0015627 0.999959 -0.00893559   
     length 1.69312   
     axis 0 0 0   XYZ
    dof rx ry rz
    limits (-20.0 45.0)
           (-30.0 30.0)
           (-30.0 30.0)
  end
  begin
     id 16
     name head
     direction -0.00230242 0.999856 -0.0168327  
     length 1.80241  
     axis 0 0 0   XYZ
    dof rx ry rz
    limits (-20.0 45.0)
           (-30.0 30.0)
           (-30.0 30.0)
  end
  begin
     id 17 
     name lclavicle
     direction 0.955523 0.290741 -0.0494489  
     length 3.84275  
     axis 0 0 0   XYZ
    dof ry rz
    limits (-20.0 10.0)
           (0.0 20.0)
  end
  begin
     id 18 
     name lhumerus
     direction 1 -4.48967e-011 -3.18382e-028   
     length 5.17714   
     axis 180 -30 -90   XYZ
    dof rx ry rz
    limits (-60.0 90.0)
           (-90.0 90.0)
           (-90.0 90.0)
  end
  begin
     id 19
     name lradius
     direction 1 -4.48968e-011 -2.22911e-027   
     length 3.43679   
     axis 180 -30 -90   XYZ
    dof rx
    limits (-10.0 170.0)
  end
  begin
     id 20
     name lwrist
     direction 1 -4.48951e-011 -6.32245e-027   
     length 1.7184   
     axis 3.57107e-015 90 90   XYZ
    dof ry
    limits (-180.0 0.0)
 end
  begin
     id 21 
     name lhand
     direction 1 -4.48924e-011 -1.26431e-026   
     length 0.573117   
     axis 8.06912e-015 90 90   XYZ
    dof rx rz
    limits (-90.0 90.0)
           (-45.0 45.0)
  end
  begin
     id 22 
     name lfingers
     direction 1 -4.49001e-011 -2.52965e-026   
     length 0.462062   
     axis 1.61381e-014 90 90   XYZ
    dof rx
    limits (0.0 90.0)
  end
  begin
     id 23
     name lthumb
     direction 0.707107 -6.35008e-011 0.707107   
     length 0.663431   
     axis -90 45 -1.62303e-014   XYZ
    dof rx rz
    limits (-45.0 45.0)
           (-45.0 45.0)
  end
  begin
     id 24 
     name rclavicle
     direction -0.963917 0.256881 -0.0698287   
     length 3.73057  
     axis 0 0 0   XYZ 
    dof ry rz
    limits (-10.0 20.0)
           (-20.0 0.0)
  end
  begin
     id 25 
     name rhumerus
     direction -1 -4.48962e-011 -2.73982e-027  
     length 5.23908   
     axis 180 30 90   XYZ
    dof rx ry rz
    limits (-90.0 60.0)
           (-90.0 90.0)
           (-90.0 90.0)
  end
  begin
     id 26 
     name rradius
     direction -1 -4.48968e-011 -4.33218e-027   
     length 3.46485   
     axis 180 30 90   XYZ
    dof rx
    limits (-10.0 170.0)
  end
  begin
     id 27 
     name rwrist
     direction -1 -4.48989e-011 -6.32372e-027   
     length 1.73243   
     axis 3.57107e-015 -90 -90   XYZ
    dof ry
    limits (-180.0 0.0)
  end
  begin
     id 28
     name rhand
     direction -1 -4.48948e-011 -1.26448e-026   
     length 0.608752   
     axis 8.06912e-015 -90 -90   XYZ
    dof rx rz
    limits (-90.0 90.0)
           (-45.0 45.0)
  end
  begin
     id 29
     name rfingers
     direction -1 -4.48962e-011 -2.52913e-026   
     length 0.490792   
     axis 1.61381e-014 -90 -90   XYZ
    dof rx
    limits (0.0 90.0)
  end
  begin
     id 30
     name rthumb
     direction -0.707107 -6.34878e-011 0.707107   
     length 0.704682   
     axis -90 -45 1.62303e-014   XYZ
    dof rx rz
    limits (-45.0 45.0)
           (-45.0 45.0)
  end
:hierarchy
  begin
    root lhipjoint rhipjoint lowerback
    lhipjoint lfemur
    lfemur ltibia
    ltibia lfoot
    lfoot ltoes
    rhipjoint rfemur
    rfemur rtibia
    rtibia rfoot
    rfoot rtoes
    lowerback upperback
    upperback thorax
    thorax lowerneck lclavicle rclavicle
    lowerneck upperneck
    upperneck head
    lclavicle lhumerus
    lhumerus lradius
    lradius lwrist
    lwrist lhand lthumb
    lhand lfingers
    rclavicle rhumerus
    rhumerus rradius
    rradius rwrist
    rwrist rhand rthumb
    rhand rfingers
  end

#!OML:ASF G:\JayActor3\Patient Classification 1\Patient 1\Session 6\male.ASF
:FULLY-SPECIFIED
:DEGREES
1
root 49.5586 15.9054 17.7164 -179.854 -17.4139 -176.806
lowerback -0.836646 -0.151408 6.54209
upperback 4.5475 -0.679008 0.905806
thorax 5.15004 -0.16823 -2.76418
lowerneck -6.17954 1.83486 4.13598
upperneck 13.9855 2.01981 -2.42906
head 5.29327 0.906319 -1.32082
rclavicle 7.56873e-014 -2.24627e-014
rhumerus -28.2363 -1.98915 -87.3503
rradius 32.6562
rwrist 1.31119
rhand -21.8851 -7.99275
rfingers 7.12502
rthumb 4.5197 -37.9245
lclavicle 7.56873e-014 -2.24627e-014
lhumerus -30.909 8.09034 84.3678
lradius 28.9213
lwrist 20.1907
lhand -16.4219 7.76404
lfingers 7.12502
lthumb 9.79313 37.5163
rfemur -10.5481 -6.59117 26.0944
rtibia 40.0644
rfoot -32.6666 -19.2278
rtoes -0.280366
lfemur -10.5638 10.364 -17.7324
ltibia 32.6598
lfoot -22.1218 4.78376
ltoes 5.69216
2
root 49.5419 15.9041 17.712 -179.924 -17.5817 -176.878
lowerback -0.594197 -0.197189 6.32139
upperback 4.43664 -0.699759 0.883545
thorax 4.89111 -0.1943 -2.66225
lowerneck -5.96019 1.80469 3.95168
upperneck 13.7979 1.97473 -2.18007
head 5.19204 0.892795 -1.21681
rclavicle -2.73329e-015 1.86858e-014
rhumerus -28.4337 -1.86158 -87.366
rradius 32.9277
rwrist 1.39884
rhand -21.7222 -7.84399
rfingers 7.12502
rthumb 4.67701 -37.7724
lclavicle -2.73329e-015 1.86858e-014
lhumerus -30.2258 10.0263 84.3041
lradius 27.7241
lwrist 18.2114
lhand -16.3307 7.56595
lfingers 7.12502
lthumb 9.88115 37.3141
rfemur -10.6261 -6.66576 25.9592
rtibia 40.442
rfoot -32.123 -20.0894
rtoes -2.54827
lfemur -10.4109 10.366 -17.8436
ltibia 32.5779
lfoot -22.0406 4.58646
ltoes 5.36973
3
root 49.526 15.9014 17.7077 -179.994 -17.7444 -177.002
lowerback -0.415133 -0.228905 6.05752
upperback 4.39236 -0.710966 0.829234
thorax 4.73998 -0.212505 -2.56979
lowerneck -5.77889 1.75806 3.83316
upperneck 13.5985 1.90408 -1.95629
head 5.09419 0.868715 -1.13294
rclavicle -2.9768e-014 6.75868e-015
rhumerus -28.5304 -1.76482 -87.427
rradius 33.1776
rwrist 1.35841
rhand -21.6945 -7.66355
rfingers 7.12502
rthumb 4.70374 -37.5913
lclavicle -2.9768e-014 6.75868e-015
lhumerus -31.3432 8.34797 84.3535
lradius 28.9591
lwrist 19.7018
lhand -16.1418 7.77555
lfingers 7.12502
lthumb 10.0633 37.5149
rfemur -10.6902 -6.72773 25.7592
rtibia 40.8474
rfoot -32.5323 -19.6187
rtoes -1.45797
lfemur -10.22 10.5181 -17.9804
ltibia 32.4695
lfoot -21.9116 4.30536
ltoes 5.33535
4
root 49.508 15.8999 17.7038 -180.042 -17.9131 -177.097
lowerback -0.439698 -0.245265 5.88844
upperback 4.45879 -0.729248 0.750819
thorax 4.82142 -0.222992 -2.55813
lowerneck -5.88466 1.73904 3.89298
upperneck 13.5704 1.87248 -1.94959
head 5.10314 0.858497 -1.14174
rclavicle -5.26282e-014 1.05356e-014
rhumerus -28.4722 -1.54359 -87.5846
rradius 33.4535
rwrist 1.02599
rhand -22.0059 -7.61565
rfingers 7.12502
rthumb 4.40304 -37.5499
lclavicle -5.26282e-014 1.05356e-014
lhumerus -30.9824 8.29557 84.4152
lradius 28.648
lwrist 19.6732
lhand -16.4 7.72465
lfingers 7.12502
lthumb 9.81429 37.4759
rfemur -10.7936 -6.77809 25.5855
rtibia 41.2528
rfoot -32.6228 -19.5653
rtoes -1.70851
lfemur -10.0634 10.481 -18.1328
ltibia 32.3627
lfoot -21.857 4.32447
ltoes 5.25206
5
root 49.4911 15.8975 17.6998 -180.099 -18.0764 -177.184
lowerback -0.372308 -0.268198 5.69046
upperback 4.47216 -0.745251 0.688355
thorax 4.79485 -0.237237 -2.51237
lowerneck -5.86912 1.71086 3.8865
upperneck 13.4724 1.82704 -1.85355
head 5.06808 0.843776 -1.11347
rclavicle 4.00054e-015 -2.10712e-014
rhumerus -28.4901 -1.38353 -87.6957
rradius 33.7171
rwrist 0.868477
rhand -22.1712 -7.51218
rfingers 7.12502
rthumb 4.24343 -37.4497
lclavicle 4.00054e-015 -2.10712e-014
lhumerus -30.9771 8.1085 84.4315
lradius 28.6469
lwrist 19.7455
lhand -16.4126 7.74979
lfingers 7.12502
lthumb 9.8021 37.5016
rfemur -10.8916 -6.81762 25.4268
rtibia 41.6644
rfoot -32.7147 -19.516
rtoes -1.9061
lfemur -9.90275 10.5089 -18.2573
ltibia 32.2575
lfoot -21.7764 4.21371
ltoes 5.14309
6
root 49.4745 15.8949 17.696 -180.148 -18.2413 -177.267
lowerback -0.330431 -0.289467 5.4933
upperback 4.49807 -0.762285 0.625495
thorax 4.79613 -0.251257 -2.46782
lowerneck -5.87594 1.68526 3.90164
upperneck 13.3841 1.78479 -1.77592
head 5.0403 0.830487 -1.09415
rclavicle 6.63941e-014 -1.88845e-014
rhumerus -28.4904 -1.22446 -87.8111
rradius 33.9747
rwrist 0.715412
rhand -22.377 -7.40316
rfingers 7.12502
rthumb 4.04473 -37.3445
lclavicle 6.63941e-014 -1.88845e-014
lhumerus -30.9446 7.86738 84.4442
lradius 28.6619
lwrist 19.8744
lhand -16.4205 7.78637
lfingers 7.12502
lthumb 9.79448 37.5386
rfemur -11.0021 -6.83883 25.2753
rtibia 42.0838
rfoot -32.8184 -19.4479
rtoes -2.10471
lfemur -9.75031 10.5387 -18.3762
ltibia 32.1489
lfoot -21.6958 4.10111
ltoes 5.02752
7
root 49.4582 15.8926 17.6922 -180.191 -18.4061 -177.344
lowerback -0.300724 -0.31056 5.29385
upperback 4.52736 -0.780614 0.566766
thorax 4.80802 -0.265963 -2.41785
lowerneck -5.89873 1.66396 3.92482
upperneck 13.3063 1.74846 -1.70977
head 5.01887 0.819669 -1.07928
rclavicle 2.8625e-014 -1.56046e-014
rhumerus -28.4864 -1.05867 -87.9232
rradius 34.2254
rwrist 0.580434
rhand -22.6083 -7.28496
rfingers 7.12502
rthumb 3.82137 -37.2304
lclavicle 2.8625e-014 -1.56046e-014
lhumerus -30.8194 7.7522 84.4491
lradius 28.5879
lwrist 19.8909
lhand -16.4301 7.80293
lfingers 7.12502
lthumb 9.78523 37.5556
rfemur -11.1241 -6.84127 25.1323
rtibia 42.5068
rfoot -32.8566 -19.4475
rtoes -2.52207
lfemur -9.61299 10.5487 -18.4872
ltibia 32.0495
lfoot -21.6224 3.97462
ltoes 4.92369
8
root 49.4423 15.8903 17.6886 -180.229 -18.5696 -177.422
lowerback -0.268474 -0.335959 5.07795
upperback 4.553 -0.804697 0.520159
thorax 4.81451 -0.284816 -2.34627
lowerneck -5.90913 1.64685 3.92694
upperneck 13.2205 1.72099 -1.64578
head 4.99294 0.811967 -1.06115
rclavicle -2.19906e-014 -9.14409e-015
rhumerus -28.4875 -0.873816 -88.0186
rradius 34.4633
rwrist 0.485183
rhand -22.8505 -7.16713
rfingers 7.12502
rthumb 3.58751 -37.1167
lclavicle -2.19906e-014 -9.14409e-015
lhumerus -30.7067 7.67109 84.4564
lradius 28.5332
lwrist 19.9006
lhand -16.4225 7.8186
lfingers 7.12502
lthumb 9.79258 37.5709
rfemur -11.2567 -6.82751 24.9917
rtibia 42.9384
rfoot -32.8427 -19.4961
rtoes -3.07709
lfemur -9.4822 10.5606 -18.5951
ltibia 31.9504
lfoot -21.5449 3.83075
ltoes 4.79013
9
root 49.4266 15.888 17.6852 -180.261 -18.7327 -177.507
lowerback -0.237199 -0.361846 4.85242
upperback 4.57741 -0.829479 0.476691
thorax 4.82048 -0.304595 -2.26603
lowerneck -5.91119 1.63105 3.9126
upperneck 13.1284 1.6972 -1.57901
head 4.96356 0.805401 -1.03929
rclavicle -1.56791e-014 6.65929e-015
rhumerus -28.4932 -0.675803 -88.105
rradius 34.6888
rwrist 0.414754
rhand -23.1161 -7.05989
rfingers 7.12502
rthumb 3.33101 -37.0136
lclavicle -1.56791e-014 6.65929e-015
lhumerus -30.5953 7.58087 84.4728
lradius 28.4909
lwrist 19.9307
lhand -16.4312 7.81943
lfingers 7.12502
lthumb 9.78415 37.5721
rfemur -11.4001 -6.80633 24.843
rtibia 43.3796
rfoot -32.767 -19.5942
rtoes -3.77804
lfemur -9.35633 10.5644 -18.7105
ltibia 31.8514
lfoot -21.4656 3.68526
ltoes 4.62954
10
root 49.4111 15.8859 17.6821 -180.29 -18.8924 -177.601
lowerback -0.202123 -0.389077 4.61895
upperback 4.60205 -0.855956 0.433723
thorax 4.82471 -0.325729 -2.18082
lowerneck -5.91248 1.61726 3.8853
upperneck 13.0341 1.67847 -1.51748
head 4.93345 0.800349 -1.01664
rclavicle 4.87395e-014 -2.88238e-015
rhumerus -28.4973 -0.472016 -88.1831
rradius 34.8939
rwrist 0.378061
rhand -23.3949 -6.97265
rfingers 7.12502
rthumb 3.06176 -36.9304
lclavicle 4.87395e-014 -2.88238e-015
lhumerus -30.4978 7.51164 84.4904
lradius 28.4712
lwrist 19.9622
lhand -16.4637 7.79803
lfingers 7.12502
lthumb 9.75275 37.5522
rfemur -11.5507 -6.78398 24.6813
rtibia 43.8311
rfoot -32.6622 -19.6982
rtoes -4.4856
lfemur -9.23119 10.5582 -18.8355
ltibia 31.7522
lfoot -21.3847 3.54526
ltoes 4.47001
11
root 49.3954 15.8837 17.6795 -180.317 -19.0496 -177.701
lowerback -0.160872 -0.414301 4.38197
upperback 4.62836 -0.879854 0.390751
thorax 4.82762 -0.345928 -2.09344
lowerneck -5.91452 1.60379 3.84793
upperneck 12.9349 1.66092 -1.45073
head 4.90187 0.795758 -0.990658
rclavicle 2.39536e-014 6.4605e-015
rhumerus -28.505 -0.250948 -88.2544
rradius 35.0887
rwrist 0.351033
rhand -23.6859 -6.92535
rfingers 7.12502
rthumb 2.78069 -36.887
lclavicle 2.39536e-014 6.4605e-015
lhumerus -30.4191 7.46216 84.512
lradius 28.4798
lwrist 19.9804
lhand -16.492 7.78339
lfingers 7.12502
lthumb 9.72545 37.5388
rfemur -11.7073 -6.77132 24.5072
rtibia 44.2926
rfoot -32.5296 -19.8067
rtoes -5.21778
lfemur -9.10446 10.5446 -18.9707
ltibia 31.6524
lfoot -21.3023 3.42181
ltoes 4.31391
12
root 49.3798 15.8813 17.6774 -180.345 -19.2031 -177.811
lowerback -0.112755 -0.441943 4.14284
upperback 4.65955 -0.907044 0.340177
thorax 4.83171 -0.36784 -2.01279
lowerneck -5.92936 1.59601 3.81704
upperneck 12.8392 1.64989 -1.38242
head 4.87379 0.794795 -0.964797
rclavicle 1.27471e-014 -7.25564e-015
rhumerus -28.5008 -0.0405069 -88.3283
rradius 35.2567
rwrist 0.36399
rhand -23.9631 -6.89768
rfingers 7.12502
rthumb 2.51296 -36.8626
lclavicle 1.27471e-014 -7.25564e-015
lhumerus -30.3428 7.42099 84.5228
lradius 28.505
lwrist 19.9991
lhand -16.5439 7.7585
lfingers 7.12502
lthumb 9.67544 37.5163
rfemur -11.8677 -6.76616 24.3189
rtibia 44.7643
rfoot -32.3807 -19.9235
rtoes -5.96587
lfemur -8.97427 10.5385 -19.1179
ltibia 31.5522
lfoot -21.2204 3.31063
ltoes 4.16066
